# xmcd
#
# Track frame offsets:
#	150
#	12665
#	32285
#	45722
#	60237
#	77137
#	100152
#	113030
#	126162
#	143027
#	158232
#	171940
#	190760
#	204742
#	220122
#	233430
#
# Disc length: 3308 seconds
#
# Revision: 0
# Processed by: cddbd v1.5.2PL0 Copyright (c) Steve Scherf et al.
# Submitted via: dBpowerAMP V4.0
#
DISCID=ce0cea10
DTITLE=Higher Ground - Black And White - Faded And Torn
DYEAR=1900
DGENRE=
TTITLE0=Fall Again
TTITLE1=On the Corner Square
TTITLE2=Don't Let Me Love 
TTITLE3=Tatnuck Hill
TTITLE4=Distant Lights
TTITLE5=In Love All Alone
TTITLE6=Love's a Word I Never Throw Around
TTITLE7=Mansion on the Hill
TTITLE8=A Broken Man
TTITLE9=Tonight My Sleep Will be Restless
TTITLE10=Pass the Salt
TTITLE11=Black and White - Faded and Torn
TTITLE12=Open Road
TTITLE13=Emotions So Deep
TTITLE14=Ryon's Jig
TTITLE15=Higher Grond
EXTD=
EXTT0=
EXTT1=
EXTT2=
EXTT3=
EXTT4=
EXTT5=
EXTT6=
EXTT7=
EXTT8=
EXTT9=
EXTT10=
EXTT11=
EXTT12=
EXTT13=
EXTT14=
EXTT15=
PLAYORDER=
